HIERARCHY
ROOT SpineBase
{
  OFFSET 0.000000 0.000000 0.000000
  CHANNELS 6 Xposition Yposition Zposition Zrotation Xrotation Yrotation
  JOINT SpineMid
  {
    OFFSET 0.000000 31.964038 0.000000
    CHANNELS 3 Zrotation Xrotation Yrotation
    JOINT SpineShoulder
    {
      OFFSET -0.016265 23.774747 -0.766397
      CHANNELS 3 Zrotation Xrotation Yrotation
      JOINT Neck
      {
        OFFSET 0.032732 7.864861 -0.551991
        CHANNELS 3 Zrotation Xrotation Yrotation
        JOINT Head
        {
          OFFSET -4.738162 14.393460 0.254395
          CHANNELS 3 Zrotation Xrotation Yrotation
          End Site
          {
            OFFSET 0 0 0
          }
        }
      }
      JOINT ShoulderLeft
      {
        OFFSET -17.278301 -6.073134 6.893667
        CHANNELS 3 Zrotation Xrotation Yrotation
        JOINT ElbowLeft
        {
          OFFSET -2.331314 -28.326031 3.733708
          CHANNELS 3 Zrotation Xrotation Yrotation
          JOINT WristLeft
          {
            OFFSET -2.338047 -22.338194 -3.815796
            CHANNELS 3 Zrotation Xrotation Yrotation
            JOINT HandLeft
            {
              OFFSET -1.926450 -5.187162 -3.945211
              CHANNELS 3 Zrotation Xrotation Yrotation
              JOINT HandTipLeft
              {
                OFFSET -0.438454 -5.751360 -3.304599
                CHANNELS 3 Zrotation Xrotation Yrotation
                End Site
                {
                  OFFSET 0 0 0
                }
              }
              JOINT ThumbLeft
              {
                OFFSET 2.512375 -0.153099 0.701412
                CHANNELS 3 Zrotation Xrotation Yrotation
                End Site
                {
                  OFFSET 0 0 0
                }
              }
            }
          }
        }
      }
      JOINT ShoulderRight
      {
        OFFSET 14.144750 -4.075041 -8.364353
        CHANNELS 3 Zrotation Xrotation Yrotation
        JOINT ElbowRight
        {
          OFFSET 6.877740 -25.457520 -1.655365
          CHANNELS 3 Zrotation Xrotation Yrotation
          JOINT WristRight
          {
            OFFSET -0.777280 -24.005057 -6.630657
            CHANNELS 3 Zrotation Xrotation Yrotation
            JOINT HandRight
            {
              OFFSET -2.809795 -6.358495 -0.712246
              CHANNELS 3 Zrotation Xrotation Yrotation
              JOINT HandTipRight
              {
                OFFSET -0.512794 -7.401643 -0.610400
                CHANNELS 3 Zrotation Xrotation Yrotation
                End Site
                {
                  OFFSET 0 0 0
                }
              }
              JOINT ThumbRight
              {
                OFFSET -2.322498 -0.493132 -2.000123
                CHANNELS 3 Zrotation Xrotation Yrotation
                End Site
                {
                  OFFSET 0 0 0
                }
              }
            }
          }
        }
      }
    }
  }
  JOINT HipLeft
  {
    OFFSET -7.040646 0.255807 -0.990953
    CHANNELS 3 Zrotation Xrotation Yrotation
    JOINT KneeLeft
    {
      OFFSET 2.597189 -35.230475 5.485285
      CHANNELS 3 Zrotation Xrotation Yrotation
      JOINT AnkleLeft
      {
        OFFSET 6.130380 -36.810357 7.161074
        CHANNELS 3 Zrotation Xrotation Yrotation
        JOINT FootLeft
        {
          OFFSET -3.214054 -3.118809 -10.852343
          CHANNELS 3 Zrotation Xrotation Yrotation
          End Site
          {
            OFFSET 0 0 0
          }
        }
      }
    }
  }
  JOINT HipRight
  {
    OFFSET 7.505715 1.446008 -6.423868
    CHANNELS 3 Zrotation Xrotation Yrotation
    JOINT KneeRight
    {
      OFFSET 4.917864 -32.327494 2.233623
      CHANNELS 3 Zrotation Xrotation Yrotation
      JOINT AnkleRight
      {
        OFFSET 2.884538 -38.006573 7.777668
        CHANNELS 3 Zrotation Xrotation Yrotation
        JOINT FootRight
        {
          OFFSET -5.139069 -7.470079 -0.212869
          CHANNELS 3 Zrotation Xrotation Yrotation
          End Site
          {
            OFFSET 0 0 0
          }
        }
      }
    }
  }
}
MOTION
Frames: 5
Frame Time: 0.033333
-23.071274 78.453875 346.809670 1.313636 -1.024555 23.603821 -0.170267 -0.192420 -23.549938 0.159446 -0.514409 0.070750 11.226509 -18.031428 -4.910177 0.000000 0.000000 0.000000 -4.257974 33.753643 -2.335123 8.095084 20.292646 -1.797973 6.176071 -38.805279 1.674848 53.848817 42.021499 -44.006852 0.000000 0.000000 0.000000 0.000000 0.000000 0.000000 0.462763 19.902382 4.314783 -87.408994 19.214352 22.589003 3.735966 -1.333304 -26.374799 -7.975740 -30.597359 -20.520629 0.000000 0.000000 0.000000 0.000000 0.000000 0.000000 0.069482 4.728456 -23.462285 0.572910 -2.288262 0.038869 9.219775 -27.556774 -24.482594 0.000000 0.000000 0.000000 1.146448 3.820695 -23.166981 -2.761973 -3.148849 -1.034447 5.590796 12.476430 -8.699318 0.000000 0.000000 0.000000
-23.080727 78.417493 346.799519 1.340800 -1.057977 23.592866 -0.158072 -0.212223 -23.536839 0.186869 -0.517715 0.074655 11.219289 -18.055020 -4.931357 0.000000 0.000000 0.000000 -5.622352 28.930357 -1.823114 9.578937 25.591597 -2.548636 7.025251 -36.460073 0.563924 51.318139 41.190911 -40.449946 0.000000 0.000000 0.000000 0.000000 0.000000 0.000000 0.640580 19.957347 4.245203 -88.223041 19.207876 22.850814 5.540562 -1.545652 -26.086592 -5.673256 -32.422014 -19.965613 0.000000 0.000000 0.000000 0.000000 0.000000 0.000000 0.057644 4.797672 -23.450828 0.528481 -2.335419 0.022063 8.971534 -25.405810 -22.897227 0.000000 0.000000 0.000000 1.121638 3.882775 -23.155359 -2.649071 -3.214304 -1.015651 5.816339 18.191331 -12.984283 0.000000 0.000000 0.000000
-23.078875 78.387109 346.777627 1.407324 -1.073267 23.645920 -0.138085 -0.244950 -23.585824 0.225339 -0.521639 0.081427 10.991510 -18.118092 -4.982226 0.000000 0.000000 0.000000 -8.376734 23.029234 -1.282115 13.730489 33.565949 -3.969591 9.400784 -25.930700 -4.839271 36.221205 36.924553 -21.349407 0.000000 0.000000 0.000000 0.000000 0.000000 0.000000 0.547997 19.876340 4.194665 -89.510775 19.103821 23.499897 8.239519 -1.526374 -25.638094 -3.092916 -33.398361 -18.222408 0.000000 0.000000 0.000000 0.000000 0.000000 0.000000 -0.011186 4.858338 -23.505042 0.528781 -2.380423 0.014216 8.681611 -23.710280 -21.156983 0.000000 0.000000 0.000000 1.045339 3.943545 -23.207957 -2.434339 -3.284246 -0.972183 9.474629 19.501552 -15.084565 0.000000 0.000000 0.000000
-23.064720 78.369965 346.743972 1.488389 -1.076973 23.756018 -0.137927 -0.275524 -23.691702 0.244477 -0.523932 0.086752 10.794167 -18.150422 -5.021109 0.000000 0.000000 0.000000 -12.020829 16.728728 -1.004476 20.631152 42.857981 -6.903468 13.633096 -14.930723 -11.179690 26.761611 25.769374 -3.595906 0.000000 0.000000 0.000000 0.000000 0.000000 0.000000 0.420024 19.755452 4.152804 -91.120971 18.751910 24.170297 11.968812 -1.311300 -24.873912 -4.705544 -34.831958 -18.767876 0.000000 0.000000 0.000000 0.000000 0.000000 0.000000 -0.109500 4.911365 -23.618068 0.572907 -2.435097 0.013725 8.436577 -22.382554 -20.321013 0.000000 0.000000 0.000000 0.903559 3.939098 -23.326893 -2.132931 -3.194695 -0.889050 10.463758 20.573652 -16.404168 0.000000 0.000000 0.000000
-23.049585 78.359397 346.713960 1.558831 -1.079365 23.880247 -0.142462 -0.294133 -23.812476 0.247804 -0.523302 0.090167 10.674433 -18.137735 -5.036815 0.000000 0.000000 0.000000 -17.269096 6.507308 -1.373325 34.310121 55.777421 -15.655073 17.117523 -8.746329 -15.856886 20.018041 18.348269 7.462278 0.000000 0.000000 0.000000 0.000000 0.000000 0.000000 0.293223 19.679719 4.136729 -91.958875 18.456680 24.463141 15.165716 -0.176312 -23.936219 -4.991540 -35.431391 -17.729936 0.000000 0.000000 0.000000 0.000000 0.000000 0.000000 -0.191910 4.947914 -23.744774 0.630500 -2.479009 0.018099 8.335818 -22.153915 -19.766686 0.000000 0.000000 0.000000 0.716720 3.916386 -23.465491 -1.631185 -3.011977 -0.751842 10.292786 22.121488 -17.891387 0.000000 0.000000 0.000000
